<svg xmlns="http://www.w3.org/2000/svg" viewBox="0 0 500 500" width="100%" height="100%">
  <rect width="500" height="500" fill="#c3dad0" />

  <circle cx="250" cy="250" r="160" fill="none" stroke="#ffffff" stroke-width="4" />

  <g transform="translate(250, 250)" fill="#ffffff" stroke="#ffffff" stroke-linecap="round" stroke-linejoin="round">
    <circle cx="0" cy="-60" r="16" stroke="none" />
    <path d="M 0 -40 L 0 25 M -25 80 L 0 25 L 25 80" stroke-width="14" fill="none" />
    <path d="M -40 -100 L 0 -30 L 40 -100" stroke-width="12" fill="none" />
    <line x1="-70" y1="-100" x2="70" y2="-100" stroke-width="8" />
    <rect x="-85" y="-118" width="12" height="36" rx="3" stroke="none" />
    <rect x="-95" y="-110" width="8" height="20" rx="2" stroke="none" />
    <rect x="73" y="-118" width="12" height="36" rx="3" stroke="none" />
    <rect x="87" y="-110" width="8" height="20" rx="2" stroke="none" />
  </g>

  <circle cx="250" cy="90" r="50" fill="#FFA07A" stroke="#ffffff" stroke-width="4" />
  <g transform="translate(250, 90)" fill="#ffffff" stroke="#ffffff" stroke-linecap="round" stroke-linejoin="round">
    <circle cx="0" cy="-18" r="6" stroke="none" />
    <path d="M 0 -10 L 0 8 M -12 28 L 0 8 L 12 28" stroke-width="6" fill="none" />
    <path d="M -14 18 L 0 -5 L 14 18" stroke-width="5" fill="none" />
    <line x1="-25" y1="18" x2="25" y2="18" stroke-width="4" />
    <rect x="-30" y="10" width="6" height="16" rx="1" stroke="none" />
    <rect x="24" y="10" width="6" height="16" rx="1" stroke="none" />
  </g>

  <circle cx="388.6" cy="170" r="50" fill="#D35E6D" stroke="#ffffff" stroke-width="4" />
  <g transform="translate(388.6, 170)" fill="#ffffff" stroke="#ffffff" stroke-linecap="round" stroke-linejoin="round">
    <circle cx="0" cy="-20" r="6" stroke="none" />
    <path d="M 0 -12 L 0 10 M -10 30 L 0 10 L 10 30" stroke-width="6" fill="none" />
    <path d="M -12 -5 L 0 -10 L 12 -3 L 12 -15" stroke-width="5" fill="none" />
    <line x1="8" y1="-15" x2="16" y2="-15" stroke-width="4" />
    <circle cx="7" cy="-15" r="2.5" stroke="none" />
    <circle cx="17" cy="-15" r="2.5" stroke="none" />
  </g>

  <circle cx="388.6" cy="330" r="50" fill="#F7A859" stroke="#ffffff" stroke-width="4" />
  <g transform="translate(388.6, 330)" fill="#ffffff" stroke="#ffffff" stroke-linecap="round" stroke-linejoin="round">
    <circle cx="4" cy="-20" r="6" stroke="none" />
    <path d="M 2 -12 L 0 10 M -12 30 L 0 10 L 14 30" stroke-width="6" fill="none" />
    <path d="M 0 -10 L 16 -3 L 14 -22" stroke-width="5" fill="none" />
    <circle cx="14" cy="-25" r="5" stroke="none" />
  </g>

  <circle cx="250" cy="410" r="50" fill="#FFA07A" stroke="#ffffff" stroke-width="4" />
  <g transform="translate(250, 410)" fill="#ffffff" stroke="#ffffff" stroke-linecap="round" stroke-linejoin="round">
    <circle cx="8" cy="-20" r="6" stroke="none" />
    <path d="M 6 -12 L -4 6" stroke-width="6" fill="none" />
    <path d="M -4 6 L -16 22 M -4 6 L 12 0 L 10 22" stroke-width="6" fill="none" />
    <path d="M -12 -2 L 4 -10 L 18 2" stroke-width="5" fill="none" />
  </g>

  <circle cx="111.4" cy="330" r="50" fill="#D35E6D" stroke="#ffffff" stroke-width="4" />
  <g transform="translate(111.4, 330)" fill="#ffffff" stroke="#ffffff" stroke-linecap="round" stroke-linejoin="round">
    <circle cx="0" cy="-20" r="6" stroke="none" />
    <path d="M 0 -12 L 0 6" stroke-width="6" fill="none" />
    <path d="M -16 18 L -16 28 M 0 6 L -16 18 M 0 6 L 16 18 M 16 18 L 16 28" stroke-width="6" fill="none" />
    <path d="M -12 -10 L 0 -5 L 12 -10" stroke-width="5" fill="none" />
    <line x1="-24" y1="-15" x2="24" y2="-15" stroke-width="4" />
    <rect x="-28" y="-23" width="5" height="16" rx="1" stroke="none" />
    <rect x="23" y="-23" width="5" height="16" rx="1" stroke="none" />
  </g>

  <circle cx="111.4" cy="170" r="50" fill="#F7A859" stroke="#ffffff" stroke-width="4" />
  <g transform="translate(111.4, 170)" fill="#ffffff" stroke="#ffffff" stroke-linecap="round" stroke-linejoin="round">
    <circle cx="0" cy="-20" r="6" stroke="none" />
    <path d="M 0 -12 L 0 10 M -10 30 L 0 10 L 10 30" stroke-width="6" fill="none" />
    <path d="M -22 -5 L 0 -10 L 22 -5" stroke-width="5" fill="none" />
    <circle cx="-24" cy="-5" r="3" stroke="none" />
    <circle cx="24" cy="-5" r="3" stroke="none" />
  </g>
</svg>
